<?xml version="1.0" encoding="UTF-8" standalone="no"?>
<!DOCTYPE svg PUBLIC "-//W3C//DTD SVG 1.1//EN"
 "http://www.w3.org/Graphics/SVG/1.1/DTD/svg11.dtd">
<!-- Generated by graphviz version 2.40.1 (20161225.0304)
 -->
<!-- Title: DClasses Pages: 1 -->
<svg width="214pt" height="555pt"
 viewBox="0.00 0.00 214.00 555.00" xmlns="http://www.w3.org/2000/svg" xmlns:xlink="http://www.w3.org/1999/xlink">
<g id="graph0" class="graph" transform="scale(1 1) rotate(0) translate(4 551)">
<title>DClasses</title>
<polygon fill="#ffffff" stroke="transparent" points="-4,4 -4,-551 210,-551 210,4 -4,4"/>
<!-- 1 -->
<g id="node1" class="node">
<title>1</title>
<polygon fill="lightblue" stroke="transparent" points="48,-505.5 48,-542.5 86,-542.5 86,-505.5 48,-505.5"/>
<polygon fill="none" stroke="#000000" points="48,-505.5 48,-542.5 86,-542.5 86,-505.5 48,-505.5"/>
<text text-anchor="start" x="59" y="-520.3" font-family="Times,serif" font-size="14.00" fill="#000000">$~\Cyc_3$</text>
</g>
<!-- 4 -->
<g id="node4" class="node">
<title>4</title>
<polygon fill="#ffffff" stroke="transparent" points="60,-424.5 60,-461.5 89,-461.5 89,-424.5 60,-424.5"/>
<polygon fill="none" stroke="#000000" points="60,-424.5 60,-461.5 89,-461.5 89,-424.5 60,-424.5"/>
<text text-anchor="start" x="71" y="-439.3" font-family="Times,serif" font-size="14.00" fill="#ffffff">*</text>
<polygon fill="#ffffff" stroke="transparent" points="89,-424.5 89,-461.5 118,-461.5 118,-424.5 89,-424.5"/>
<polygon fill="none" stroke="#000000" points="89,-424.5 89,-461.5 118,-461.5 118,-424.5 89,-424.5"/>
<text text-anchor="start" x="100" y="-439.3" font-family="Times,serif" font-size="14.00" fill="#ffffff">*</text>
<polygon fill="#ffffff" stroke="transparent" points="118,-424.5 118,-461.5 147,-461.5 147,-424.5 118,-424.5"/>
<polygon fill="none" stroke="#000000" points="118,-424.5 118,-461.5 147,-461.5 147,-424.5 118,-424.5"/>
<text text-anchor="start" x="129" y="-439.3" font-family="Times,serif" font-size="14.00" fill="#ffffff">*</text>
</g>
<!-- 1&#45;&gt;4 -->
<g id="edge1" class="edge">
<title>1&#45;&gt;4</title>
<path fill="none" stroke="#000000" d="M77.028,-501.937C81.9796,-490.796 87.9398,-477.3856 92.9009,-466.2229"/>
</g>
<!-- 2 -->
<g id="node2" class="node">
<title>2</title>
<polygon fill="#ffffff" stroke="transparent" points="125,-505.5 125,-542.5 154,-542.5 154,-505.5 125,-505.5"/>
<polygon fill="none" stroke="#000000" points="125,-505.5 125,-542.5 154,-542.5 154,-505.5 125,-505.5"/>
<text text-anchor="start" x="136" y="-520.3" font-family="Times,serif" font-size="14.00" fill="#ffffff">*</text>
</g>
<!-- 2&#45;&gt;4 -->
<g id="edge2" class="edge">
<title>2&#45;&gt;4</title>
<path fill="none" stroke="#000000" d="M128.972,-501.937C124.0204,-490.796 118.0602,-477.3856 113.0991,-466.2229"/>
</g>
<!-- 3 -->
<g id="node3" class="node">
<title>3</title>
<polygon fill="lightblue" stroke="transparent" points="8,-343.5 8,-380.5 46,-380.5 46,-343.5 8,-343.5"/>
<polygon fill="none" stroke="#000000" points="8,-343.5 8,-380.5 46,-380.5 46,-343.5 8,-343.5"/>
<text text-anchor="start" x="19" y="-358.3" font-family="Times,serif" font-size="14.00" fill="#000000">$~\Cyc_2$</text>
<polygon fill="lightblue" stroke="transparent" points="46,-343.5 46,-380.5 84,-380.5 84,-343.5 46,-343.5"/>
<polygon fill="none" stroke="#000000" points="46,-343.5 46,-380.5 84,-380.5 84,-343.5 46,-343.5"/>
<text text-anchor="start" x="57" y="-358.3" font-family="Times,serif" font-size="14.00" fill="#000000">$~\Cyc_2$</text>
<polygon fill="lightblue" stroke="transparent" points="84,-343.5 84,-380.5 122,-380.5 122,-343.5 84,-343.5"/>
<polygon fill="none" stroke="#000000" points="84,-343.5 84,-380.5 122,-380.5 122,-343.5 84,-343.5"/>
<text text-anchor="start" x="95" y="-358.3" font-family="Times,serif" font-size="14.00" fill="#000000">$~\Cyc_2$</text>
<polygon fill="lightblue" stroke="transparent" points="122,-343.5 122,-380.5 160,-380.5 160,-343.5 122,-343.5"/>
<polygon fill="none" stroke="#000000" points="122,-343.5 122,-380.5 160,-380.5 160,-343.5 122,-343.5"/>
<text text-anchor="start" x="133" y="-358.3" font-family="Times,serif" font-size="14.00" fill="#000000">$~\Cyc_2$</text>
<polygon fill="#ffffff" stroke="transparent" points="160,-343.5 160,-380.5 198,-380.5 198,-343.5 160,-343.5"/>
<polygon fill="none" stroke="#000000" points="160,-343.5 160,-380.5 198,-380.5 198,-343.5 160,-343.5"/>
<polygon fill="lightblue" stroke="transparent" points="8,-306.5 8,-343.5 46,-343.5 46,-306.5 8,-306.5"/>
<polygon fill="none" stroke="#000000" points="8,-306.5 8,-343.5 46,-343.5 46,-306.5 8,-306.5"/>
<text text-anchor="start" x="19" y="-321.3" font-family="Times,serif" font-size="14.00" fill="#000000">$~\Cyc_2$</text>
<polygon fill="#ffffff" stroke="transparent" points="46,-306.5 46,-343.5 84,-343.5 84,-306.5 46,-306.5"/>
<polygon fill="none" stroke="#000000" points="46,-306.5 46,-343.5 84,-343.5 84,-306.5 46,-306.5"/>
<polygon fill="lightblue" stroke="transparent" points="84,-306.5 84,-343.5 122,-343.5 122,-306.5 84,-306.5"/>
<polygon fill="none" stroke="#000000" points="84,-306.5 84,-343.5 122,-343.5 122,-306.5 84,-306.5"/>
<text text-anchor="start" x="95" y="-321.3" font-family="Times,serif" font-size="14.00" fill="#000000">$~\Cyc_2$</text>
<polygon fill="#ffffff" stroke="transparent" points="122,-306.5 122,-343.5 160,-343.5 160,-306.5 122,-306.5"/>
<polygon fill="none" stroke="#000000" points="122,-306.5 122,-343.5 160,-343.5 160,-306.5 122,-306.5"/>
<polygon fill="lightblue" stroke="transparent" points="160,-306.5 160,-343.5 198,-343.5 198,-306.5 160,-306.5"/>
<polygon fill="none" stroke="#000000" points="160,-306.5 160,-343.5 198,-343.5 198,-306.5 160,-306.5"/>
<text text-anchor="start" x="171" y="-321.3" font-family="Times,serif" font-size="14.00" fill="#000000">$~\Cyc_2$</text>
<polygon fill="lightblue" stroke="transparent" points="8,-269.5 8,-306.5 46,-306.5 46,-269.5 8,-269.5"/>
<polygon fill="none" stroke="#000000" points="8,-269.5 8,-306.5 46,-306.5 46,-269.5 8,-269.5"/>
<text text-anchor="start" x="19" y="-284.3" font-family="Times,serif" font-size="14.00" fill="#000000">$~\Cyc_2$</text>
<polygon fill="lightblue" stroke="transparent" points="46,-269.5 46,-306.5 84,-306.5 84,-269.5 46,-269.5"/>
<polygon fill="none" stroke="#000000" points="46,-269.5 46,-306.5 84,-306.5 84,-269.5 46,-269.5"/>
<text text-anchor="start" x="57" y="-284.3" font-family="Times,serif" font-size="14.00" fill="#000000">$~\Cyc_2$</text>
<polygon fill="#ffffff" stroke="transparent" points="84,-269.5 84,-306.5 122,-306.5 122,-269.5 84,-269.5"/>
<polygon fill="none" stroke="#000000" points="84,-269.5 84,-306.5 122,-306.5 122,-269.5 84,-269.5"/>
<polygon fill="#ffffff" stroke="transparent" points="122,-269.5 122,-306.5 160,-306.5 160,-269.5 122,-269.5"/>
<polygon fill="none" stroke="#000000" points="122,-269.5 122,-306.5 160,-306.5 160,-269.5 122,-269.5"/>
<polygon fill="#ffffff" stroke="transparent" points="160,-269.5 160,-306.5 198,-306.5 198,-269.5 160,-269.5"/>
<polygon fill="none" stroke="#000000" points="160,-269.5 160,-306.5 198,-306.5 198,-269.5 160,-269.5"/>
<polygon fill="#ffffff" stroke="transparent" points="8,-232.5 8,-269.5 46,-269.5 46,-232.5 8,-232.5"/>
<polygon fill="none" stroke="#000000" points="8,-232.5 8,-269.5 46,-269.5 46,-232.5 8,-232.5"/>
<polygon fill="lightblue" stroke="transparent" points="46,-232.5 46,-269.5 84,-269.5 84,-232.5 46,-232.5"/>
<polygon fill="none" stroke="#000000" points="46,-232.5 46,-269.5 84,-269.5 84,-232.5 46,-232.5"/>
<text text-anchor="start" x="57" y="-247.3" font-family="Times,serif" font-size="14.00" fill="#000000">$~\Cyc_2$</text>
<polygon fill="#ffffff" stroke="transparent" points="84,-232.5 84,-269.5 122,-269.5 122,-232.5 84,-232.5"/>
<polygon fill="none" stroke="#000000" points="84,-232.5 84,-269.5 122,-269.5 122,-232.5 84,-232.5"/>
<polygon fill="lightblue" stroke="transparent" points="122,-232.5 122,-269.5 160,-269.5 160,-232.5 122,-232.5"/>
<polygon fill="none" stroke="#000000" points="122,-232.5 122,-269.5 160,-269.5 160,-232.5 122,-232.5"/>
<text text-anchor="start" x="133" y="-247.3" font-family="Times,serif" font-size="14.00" fill="#000000">$~\Cyc_2$</text>
<polygon fill="lightblue" stroke="transparent" points="160,-232.5 160,-269.5 198,-269.5 198,-232.5 160,-232.5"/>
<polygon fill="none" stroke="#000000" points="160,-232.5 160,-269.5 198,-269.5 198,-232.5 160,-232.5"/>
<text text-anchor="start" x="171" y="-247.3" font-family="Times,serif" font-size="14.00" fill="#000000">$~\Cyc_2$</text>
<polygon fill="#ffffff" stroke="transparent" points="8,-195.5 8,-232.5 46,-232.5 46,-195.5 8,-195.5"/>
<polygon fill="none" stroke="#000000" points="8,-195.5 8,-232.5 46,-232.5 46,-195.5 8,-195.5"/>
<polygon fill="#ffffff" stroke="transparent" points="46,-195.5 46,-232.5 84,-232.5 84,-195.5 46,-195.5"/>
<polygon fill="none" stroke="#000000" points="46,-195.5 46,-232.5 84,-232.5 84,-195.5 46,-195.5"/>
<polygon fill="lightblue" stroke="transparent" points="84,-195.5 84,-232.5 122,-232.5 122,-195.5 84,-195.5"/>
<polygon fill="none" stroke="#000000" points="84,-195.5 84,-232.5 122,-232.5 122,-195.5 84,-195.5"/>
<text text-anchor="start" x="95" y="-210.3" font-family="Times,serif" font-size="14.00" fill="#000000">$~\Cyc_2$</text>
<polygon fill="lightblue" stroke="transparent" points="122,-195.5 122,-232.5 160,-232.5 160,-195.5 122,-195.5"/>
<polygon fill="none" stroke="#000000" points="122,-195.5 122,-232.5 160,-232.5 160,-195.5 122,-195.5"/>
<text text-anchor="start" x="133" y="-210.3" font-family="Times,serif" font-size="14.00" fill="#000000">$~\Cyc_2$</text>
<polygon fill="#ffffff" stroke="transparent" points="160,-195.5 160,-232.5 198,-232.5 198,-195.5 160,-195.5"/>
<polygon fill="none" stroke="#000000" points="160,-195.5 160,-232.5 198,-232.5 198,-195.5 160,-195.5"/>
</g>
<!-- 5 -->
<g id="node5" class="node">
<title>5</title>
<polygon fill="lightblue" stroke="transparent" points="89,-115 89,-152 118,-152 118,-115 89,-115"/>
<polygon fill="none" stroke="#000000" points="89,-115 89,-152 118,-152 118,-115 89,-115"/>
<text text-anchor="start" x="100" y="-129.8" font-family="Times,serif" font-size="14.00" fill="#000000">1</text>
<polygon fill="lightblue" stroke="transparent" points="89,-78 89,-115 118,-115 118,-78 89,-78"/>
<polygon fill="none" stroke="#000000" points="89,-78 89,-115 118,-115 118,-78 89,-78"/>
<text text-anchor="start" x="100" y="-92.8" font-family="Times,serif" font-size="14.00" fill="#000000">1</text>
<polygon fill="lightblue" stroke="transparent" points="89,-41 89,-78 118,-78 118,-41 89,-41"/>
<polygon fill="none" stroke="#000000" points="89,-41 89,-78 118,-78 118,-41 89,-41"/>
<text text-anchor="start" x="100" y="-55.8" font-family="Times,serif" font-size="14.00" fill="#000000">1</text>
<polygon fill="lightblue" stroke="transparent" points="89,-4 89,-41 118,-41 118,-4 89,-4"/>
<polygon fill="none" stroke="#000000" points="89,-4 89,-41 118,-41 118,-4 89,-4"/>
<text text-anchor="start" x="100" y="-18.8" font-family="Times,serif" font-size="14.00" fill="#000000">1</text>
</g>
<!-- 3&#45;&gt;5 -->
<g id="edge3" class="edge">
<title>3&#45;&gt;5</title>
<path fill="none" stroke="#000000" d="M103,-191.8752C103,-179.8783 103,-167.731 103,-156.0623"/>
</g>
<!-- 4&#45;&gt;3 -->
<g id="edge4" class="edge">
<title>4&#45;&gt;3</title>
<path fill="none" stroke="#000000" d="M103,-420.9617C103,-410.9701 103,-398.4675 103,-385.1608"/>
</g>
</g>
</svg>
