<?xml version="1.0" encoding="UTF-8" standalone="no"?>
<!DOCTYPE svg PUBLIC "-//W3C//DTD SVG 1.1//EN"
 "http://www.w3.org/Graphics/SVG/1.1/DTD/svg11.dtd">
<!-- Generated by graphviz version 2.38.0 (20140413.2041)
 -->
<!-- Title: DClasses Pages: 1 -->
<svg width="134pt" height="215pt"
 viewBox="0.00 0.00 134.00 215.00" xmlns="http://www.w3.org/2000/svg" xmlns:xlink="http://www.w3.org/1999/xlink">
<g id="graph0" class="graph" transform="scale(1 1) rotate(0) translate(4 211)">
<title>DClasses</title>
<polygon fill="white" stroke="none" points="-4,4 -4,-211 130,-211 130,4 -4,4"/>
<!-- 1 -->
<g id="node1" class="node"><title>1</title>
<polygon fill="white" stroke="none" points="13,-165.5 13,-202.5 42,-202.5 42,-165.5 13,-165.5"/>
<polygon fill="none" stroke="black" points="13,-165.5 13,-202.5 42,-202.5 42,-165.5 13,-165.5"/>
<text text-anchor="start" x="24" y="-180.3" font-family="Times,serif" font-size="14.00" fill="white">*</text>
</g>
<!-- 4 -->
<g id="node4" class="node"><title>4</title>
<polygon fill="lightblue" stroke="none" points="49,-84.5 49,-121.5 78,-121.5 78,-84.5 49,-84.5"/>
<polygon fill="none" stroke="black" points="49,-84.5 49,-121.5 78,-121.5 78,-84.5 49,-84.5"/>
<text text-anchor="start" x="60" y="-99.3" font-family="Times,serif" font-size="14.00">1</text>
</g>
<!-- 1&#45;&gt;4 -->
<g id="edge1" class="edge"><title>1&#45;&gt;4</title>
<path fill="none" stroke="black" d="M36.8372,-161.913C41.9168,-150.766 48.0968,-137.204 53.1747,-126.061"/>
</g>
<!-- 2 -->
<g id="node2" class="node"><title>2</title>
<polygon fill="white" stroke="none" points="85,-165.5 85,-202.5 114,-202.5 114,-165.5 85,-165.5"/>
<polygon fill="none" stroke="black" points="85,-165.5 85,-202.5 114,-202.5 114,-165.5 85,-165.5"/>
<text text-anchor="start" x="96" y="-180.3" font-family="Times,serif" font-size="14.00" fill="white">*</text>
</g>
<!-- 2&#45;&gt;4 -->
<g id="edge2" class="edge"><title>2&#45;&gt;4</title>
<path fill="none" stroke="black" d="M89.1628,-161.913C84.0832,-150.766 77.9032,-137.204 72.8253,-126.061"/>
</g>
<!-- 3 -->
<g id="node3" class="node"><title>3</title>
<polygon fill="lightblue" stroke="none" points="49,-3.5 49,-40.5 78,-40.5 78,-3.5 49,-3.5"/>
<polygon fill="none" stroke="black" points="49,-3.5 49,-40.5 78,-40.5 78,-3.5 49,-3.5"/>
<text text-anchor="start" x="60" y="-18.3" font-family="Times,serif" font-size="14.00">1</text>
</g>
<!-- 4&#45;&gt;3 -->
<g id="edge3" class="edge"><title>4&#45;&gt;3</title>
<path fill="none" stroke="black" d="M63,-80.9129C63,-69.7659 63,-56.2042 63,-45.061"/>
</g>
</g>
</svg>
