<?xml version="1.0" encoding="UTF-8" standalone="no"?>
<!DOCTYPE svg PUBLIC "-//W3C//DTD SVG 1.1//EN"
 "http://www.w3.org/Graphics/SVG/1.1/DTD/svg11.dtd">
<!-- Generated by graphviz version 2.38.0 (20140413.2041)
 -->
<!-- Title: DClasses Pages: 1 -->
<svg width="134pt" height="134pt"
 viewBox="0.00 0.00 134.00 134.00" xmlns="http://www.w3.org/2000/svg" xmlns:xlink="http://www.w3.org/1999/xlink">
<g id="graph0" class="graph" transform="scale(1 1) rotate(0) translate(4 130)">
<title>DClasses</title>
<polygon fill="white" stroke="none" points="-4,4 -4,-130 130,-130 130,4 -4,4"/>
<!-- 1 -->
<g id="node1" class="node"><title>1</title>
<polygon fill="white" stroke="none" points="13,-84.5 13,-121.5 42,-121.5 42,-84.5 13,-84.5"/>
<polygon fill="none" stroke="black" points="13,-84.5 13,-121.5 42,-121.5 42,-84.5 13,-84.5"/>
<text text-anchor="start" x="24" y="-99.3" font-family="Times,serif" font-size="14.00" fill="white">*</text>
</g>
<!-- 3 -->
<g id="node3" class="node"><title>3</title>
<polygon fill="lightblue" stroke="none" points="34,-3.5 34,-40.5 63,-40.5 63,-3.5 34,-3.5"/>
<polygon fill="none" stroke="black" points="34,-3.5 34,-40.5 63,-40.5 63,-3.5 34,-3.5"/>
<text text-anchor="start" x="45" y="-18.3" font-family="Times,serif" font-size="14.00">1</text>
<polygon fill="lightblue" stroke="none" points="63,-3.5 63,-40.5 92,-40.5 92,-3.5 63,-3.5"/>
<polygon fill="none" stroke="black" points="63,-3.5 63,-40.5 92,-40.5 92,-3.5 63,-3.5"/>
<text text-anchor="start" x="74" y="-18.3" font-family="Times,serif" font-size="14.00">1</text>
</g>
<!-- 1&#45;&gt;3 -->
<g id="edge1" class="edge"><title>1&#45;&gt;3</title>
<path fill="none" stroke="black" d="M36.8372,-80.9129C41.9168,-69.7659 48.0968,-56.2042 53.1747,-45.061"/>
</g>
<!-- 2 -->
<g id="node2" class="node"><title>2</title>
<polygon fill="white" stroke="none" points="85,-84.5 85,-121.5 114,-121.5 114,-84.5 85,-84.5"/>
<polygon fill="none" stroke="black" points="85,-84.5 85,-121.5 114,-121.5 114,-84.5 85,-84.5"/>
<text text-anchor="start" x="96" y="-99.3" font-family="Times,serif" font-size="14.00" fill="white">*</text>
</g>
<!-- 2&#45;&gt;3 -->
<g id="edge2" class="edge"><title>2&#45;&gt;3</title>
<path fill="none" stroke="black" d="M89.1628,-80.9129C84.0832,-69.7659 77.9032,-56.2042 72.8253,-45.061"/>
</g>
</g>
</svg>
