<?xml version="1.0" encoding="UTF-8" standalone="no"?>
<!DOCTYPE svg PUBLIC "-//W3C//DTD SVG 1.1//EN"
 "http://www.w3.org/Graphics/SVG/1.1/DTD/svg11.dtd">
<!-- Generated by graphviz version 2.38.0 (20140413.2041)
 -->
<!-- Title: DClasses Pages: 1 -->
<svg width="206pt" height="134pt"
 viewBox="0.00 0.00 206.00 134.00" xmlns="http://www.w3.org/2000/svg" xmlns:xlink="http://www.w3.org/1999/xlink">
<g id="graph0" class="graph" transform="scale(1 1) rotate(0) translate(4 130)">
<title>DClasses</title>
<polygon fill="white" stroke="none" points="-4,4 -4,-130 202,-130 202,4 -4,4"/>
<!-- 1 -->
<g id="node1" class="node"><title>1</title>
<polygon fill="white" stroke="none" points="13,-84.5 13,-121.5 42,-121.5 42,-84.5 13,-84.5"/>
<polygon fill="none" stroke="black" points="13,-84.5 13,-121.5 42,-121.5 42,-84.5 13,-84.5"/>
<text text-anchor="start" x="24" y="-99.3" font-family="Times,serif" font-size="14.00" fill="white">*</text>
</g>
<!-- 4 -->
<g id="node4" class="node"><title>4</title>
<polygon fill="gray" stroke="none" points="85,-3.5 85,-40.5 114,-40.5 114,-3.5 85,-3.5"/>
<polygon fill="none" stroke="black" points="85,-3.5 85,-40.5 114,-40.5 114,-3.5 85,-3.5"/>
<text text-anchor="start" x="96" y="-18.3" font-family="Times,serif" font-size="14.00">1</text>
</g>
<!-- 1&#45;&gt;4 -->
<g id="edge1" class="edge"><title>1&#45;&gt;4</title>
<path fill="none" stroke="black" d="M46.6743,-80.9129C56.8336,-69.7659 69.1936,-56.2042 79.3495,-45.061"/>
</g>
<!-- 2 -->
<g id="node2" class="node"><title>2</title>
<polygon fill="white" stroke="none" points="85,-84.5 85,-121.5 114,-121.5 114,-84.5 85,-84.5"/>
<polygon fill="none" stroke="black" points="85,-84.5 85,-121.5 114,-121.5 114,-84.5 85,-84.5"/>
<text text-anchor="start" x="96" y="-99.3" font-family="Times,serif" font-size="14.00" fill="white">*</text>
</g>
<!-- 2&#45;&gt;4 -->
<g id="edge2" class="edge"><title>2&#45;&gt;4</title>
<path fill="none" stroke="black" d="M99,-80.9129C99,-69.7659 99,-56.2042 99,-45.061"/>
</g>
<!-- 3 -->
<g id="node3" class="node"><title>3</title>
<polygon fill="gray" stroke="none" points="157,-84.5 157,-121.5 186,-121.5 186,-84.5 157,-84.5"/>
<polygon fill="none" stroke="black" points="157,-84.5 157,-121.5 186,-121.5 186,-84.5 157,-84.5"/>
<text text-anchor="start" x="168" y="-99.3" font-family="Times,serif" font-size="14.00">1</text>
</g>
<!-- 3&#45;&gt;4 -->
<g id="edge3" class="edge"><title>3&#45;&gt;4</title>
<path fill="none" stroke="black" d="M151.326,-80.9129C141.166,-69.7659 128.806,-56.2042 118.651,-45.061"/>
</g>
</g>
</svg>
