<?xml version="1.0" encoding="UTF-8" standalone="no"?>
<!DOCTYPE svg PUBLIC "-//W3C//DTD SVG 1.1//EN"
 "http://www.w3.org/Graphics/SVG/1.1/DTD/svg11.dtd">
<!-- Generated by graphviz version 2.38.0 (20140413.2041)
 -->
<!-- Title: DClasses Pages: 1 -->
<svg width="111pt" height="134pt"
 viewBox="0.00 0.00 111.00 134.00" xmlns="http://www.w3.org/2000/svg" xmlns:xlink="http://www.w3.org/1999/xlink">
<g id="graph0" class="graph" transform="scale(1 1) rotate(0) translate(4 130)">
<title>DClasses</title>
<polygon fill="white" stroke="none" points="-4,4 -4,-130 107,-130 107,4 -4,4"/>
<!-- 1 -->
<g id="node1" class="node"><title>1</title>
<polygon fill="white" stroke="none" points="37.5,-84.5 37.5,-121.5 66.5,-121.5 66.5,-84.5 37.5,-84.5"/>
<polygon fill="none" stroke="black" points="37.5,-84.5 37.5,-121.5 66.5,-121.5 66.5,-84.5 37.5,-84.5"/>
<text text-anchor="start" x="48.5" y="-99.3" font-family="Times,serif" font-size="14.00" fill="white">*</text>
</g>
<!-- 2 -->
<g id="node2" class="node"><title>2</title>
<polygon fill="gray" stroke="none" points="8.5,-3.5 8.5,-40.5 37.5,-40.5 37.5,-3.5 8.5,-3.5"/>
<polygon fill="none" stroke="black" points="8.5,-3.5 8.5,-40.5 37.5,-40.5 37.5,-3.5 8.5,-3.5"/>
<text text-anchor="start" x="19.5" y="-18.3" font-family="Times,serif" font-size="14.00">1</text>
<polygon fill="gray" stroke="none" points="37.5,-3.5 37.5,-40.5 66.5,-40.5 66.5,-3.5 37.5,-3.5"/>
<polygon fill="none" stroke="black" points="37.5,-3.5 37.5,-40.5 66.5,-40.5 66.5,-3.5 37.5,-3.5"/>
<text text-anchor="start" x="48.5" y="-18.3" font-family="Times,serif" font-size="14.00">1</text>
<polygon fill="gray" stroke="none" points="66.5,-3.5 66.5,-40.5 95.5,-40.5 95.5,-3.5 66.5,-3.5"/>
<polygon fill="none" stroke="black" points="66.5,-3.5 66.5,-40.5 95.5,-40.5 95.5,-3.5 66.5,-3.5"/>
<text text-anchor="start" x="77.5" y="-18.3" font-family="Times,serif" font-size="14.00">1</text>
</g>
<!-- 1&#45;&gt;2 -->
<g id="edge1" class="edge"><title>1&#45;&gt;2</title>
<path fill="none" stroke="black" d="M51.5,-80.9129C51.5,-69.7659 51.5,-56.2042 51.5,-45.061"/>
</g>
</g>
</svg>
